<svg width="16" height="17" viewBox="0 0 16 17" fill="none" xmlns="http://www.w3.org/2000/svg">
<path d="M7.75 2.19006C7.94891 2.19006 8.13968 2.26908 8.28033 2.40973C8.42098 2.55039 8.5 2.74115 8.5 2.94006V7.19006H12.75C12.9489 7.19006 13.1397 7.26908 13.2803 7.40973C13.421 7.55039 13.5 7.74115 13.5 7.94006C13.5 8.13898 13.421 8.32974 13.2803 8.47039C13.1397 8.61105 12.9489 8.69006 12.75 8.69006H8.5V12.9401C8.5 13.139 8.42098 13.3297 8.28033 13.4704C8.13968 13.611 7.94891 13.6901 7.75 13.6901C7.55109 13.6901 7.36032 13.611 7.21967 13.4704C7.07902 13.3297 7 13.139 7 12.9401V8.69006H2.75C2.55109 8.69006 2.36032 8.61105 2.21967 8.47039C2.07902 8.32974 2 8.13898 2 7.94006C2 7.74115 2.07902 7.55039 2.21967 7.40973C2.36032 7.26908 2.55109 7.19006 2.75 7.19006H7V2.94006C7 2.74115 7.07902 2.55039 7.21967 2.40973C7.36032 2.26908 7.55109 2.19006 7.75 2.19006Z" fill="#19ECDE"/>
</svg>
