<svg width="180" height="60" viewBox="0 0 180 60" fill="none" xmlns="http://www.w3.org/2000/svg">
<rect x="0.5" y="0.5" width="179" height="59" rx="5.5" fill="black"/>
<rect x="0.5" y="0.5" width="179" height="59" rx="5.5" stroke="#A6A6A6"/>
<path d="M38.3863 30.5493C38.4033 29.2845 38.7537 28.0443 39.4049 26.9441C40.0561 25.844 40.9869 24.9197 42.1107 24.2572C41.3968 23.2795 40.4549 22.4749 39.3599 21.9073C38.265 21.3397 37.047 21.0247 35.8029 20.9874C33.149 20.7203 30.5761 22.5101 29.2237 22.5101C27.8451 22.5101 25.7629 21.0139 23.5206 21.0581C22.0703 21.1031 20.6568 21.5075 19.418 22.2319C18.1791 22.9564 17.157 23.9762 16.4514 25.192C13.3949 30.2663 15.6748 37.7238 18.6027 41.8255C20.0676 43.834 21.7797 46.0775 24.0199 45.998C26.2121 45.9108 27.0308 44.6576 29.6769 44.6576C32.2985 44.6576 33.0667 45.998 35.3523 45.9474C37.7046 45.9108 39.1867 43.93 40.6002 41.9025C41.6528 40.4714 42.4627 38.8897 43 37.216C41.6334 36.6618 40.4671 35.7341 39.6467 34.5485C38.8262 33.363 38.3879 31.9721 38.3863 30.5493Z" fill="white"/>
<path d="M34.069 18.2898C35.3516 16.8135 35.9834 14.9159 35.8304 13C33.8709 13.1973 32.0609 14.0953 30.761 15.515C30.1255 16.2086 29.6387 17.0155 29.3285 17.8895C29.0184 18.7636 28.8909 19.6877 28.9535 20.609C29.9335 20.6187 30.9032 20.415 31.7892 20.0132C32.6753 19.6115 33.4548 19.0222 34.069 18.2898Z" fill="white"/>
<path d="M57.8789 16.335H60.1787C62.166 16.335 63.1328 17.5166 63.1328 19.6602C63.1328 21.8037 62.1562 23 60.1787 23H57.8789V16.335ZM58.9873 17.2676V22.0674H60.0566C61.375 22.0674 61.9951 21.2715 61.9951 19.6748C61.9951 18.0684 61.3701 17.2676 60.0566 17.2676H58.9873ZM66.6387 17.751C67.9863 17.751 68.9287 18.625 68.9287 20.0752V20.7441C68.9287 22.2432 67.9863 23.0879 66.6387 23.0879C65.2715 23.0879 64.3389 22.2529 64.3389 20.749V20.0801C64.3389 18.6689 65.2861 17.751 66.6387 17.751ZM66.6436 18.625C65.8721 18.625 65.4326 19.2695 65.4326 20.1338V20.71C65.4326 21.5742 65.8428 22.2139 66.6436 22.2139C67.4346 22.2139 67.8398 21.5791 67.8398 20.71V20.1338C67.8398 19.2695 67.415 18.625 66.6436 18.625ZM76.8877 17.8389L75.5303 23H74.4268L73.3477 19.1914H73.3184L72.2588 23H71.1504L69.7344 17.8389H70.9014L71.7314 21.7744H71.7803L72.8203 17.8389H73.8408L74.9102 21.7744H74.959L75.8037 17.8389H76.8877ZM77.9619 23V17.8389H79.0264V18.7666H79.0801C79.2119 18.3613 79.5879 17.7607 80.6328 17.7607C81.6729 17.7607 82.3711 18.3369 82.3711 19.5137V23H81.2871V19.8311C81.2871 19.0449 80.877 18.6836 80.2666 18.6836C79.4658 18.6836 79.0459 19.2988 79.0459 20.1338V23H77.9619ZM84.0117 23V15.9834H85.0957V23H84.0117ZM88.8164 17.751C90.1641 17.751 91.1064 18.625 91.1064 20.0752V20.7441C91.1064 22.2432 90.1641 23.0879 88.8164 23.0879C87.4492 23.0879 86.5166 22.2529 86.5166 20.749V20.0801C86.5166 18.6689 87.4639 17.751 88.8164 17.751ZM88.8213 18.625C88.0498 18.625 87.6104 19.2695 87.6104 20.1338V20.71C87.6104 21.5742 88.0205 22.2139 88.8213 22.2139C89.6123 22.2139 90.0176 21.5791 90.0176 20.71V20.1338C90.0176 19.2695 89.5928 18.625 88.8213 18.625ZM93.9141 23.0781C92.9131 23.0781 92.2246 22.4629 92.2246 21.501C92.2246 20.5879 92.8594 19.9727 94.0508 19.9727H95.3545V19.4893C95.3545 18.8984 94.9785 18.6201 94.3828 18.6201C93.7969 18.6201 93.5332 18.8643 93.4502 19.2061H92.4199C92.4834 18.3418 93.1328 17.7607 94.417 17.7607C95.5205 17.7607 96.4336 18.2197 96.4336 19.5039V23H95.4033V22.3311H95.3545C95.125 22.7266 94.6758 23.0781 93.9141 23.0781ZM94.251 22.2383C94.8662 22.2383 95.3545 21.8184 95.3545 21.2568V20.7002H94.2217C93.5918 20.7002 93.3135 21.0176 93.3135 21.4473C93.3135 21.9844 93.7627 22.2383 94.251 22.2383ZM99.7734 17.7705C100.501 17.7705 101.058 18.0928 101.258 18.6152H101.312V15.9834H102.396V23H101.341V22.1748H101.287C101.131 22.6973 100.511 23.0684 99.7588 23.0684C98.5723 23.0684 97.8008 22.2236 97.8008 20.8613V19.9775C97.8008 18.6152 98.5869 17.7705 99.7734 17.7705ZM100.076 18.6592C99.3535 18.6592 98.9043 19.1963 98.9043 20.1338V20.7002C98.9043 21.6426 99.3584 22.1797 100.101 22.1797C100.833 22.1797 101.312 21.6475 101.312 20.7686V19.9873C101.312 19.1914 100.789 18.6592 100.076 18.6592ZM108.348 17.751C109.695 17.751 110.638 18.625 110.638 20.0752V20.7441C110.638 22.2432 109.695 23.0879 108.348 23.0879C106.98 23.0879 106.048 22.2529 106.048 20.749V20.0801C106.048 18.6689 106.995 17.751 108.348 17.751ZM108.353 18.625C107.581 18.625 107.142 19.2695 107.142 20.1338V20.71C107.142 21.5742 107.552 22.2139 108.353 22.2139C109.144 22.2139 109.549 21.5791 109.549 20.71V20.1338C109.549 19.2695 109.124 18.625 108.353 18.625ZM112.034 23V17.8389H113.099V18.7666H113.152C113.284 18.3613 113.66 17.7607 114.705 17.7607C115.745 17.7607 116.443 18.3369 116.443 19.5137V23H115.359V19.8311C115.359 19.0449 114.949 18.6836 114.339 18.6836C113.538 18.6836 113.118 19.2988 113.118 20.1338V23H112.034ZM120.638 17.873V16.584H121.697V17.873H122.854V18.7227H121.697V21.4619C121.697 22.0234 121.907 22.1797 122.488 22.1797C122.635 22.1797 122.83 22.1699 122.913 22.1602V22.9902C122.825 23.0049 122.464 23.0342 122.22 23.0342C120.965 23.0342 120.623 22.585 120.623 21.5498V18.7227H119.837V17.873H120.638ZM124.222 23V15.9834H125.301V18.7666H125.354C125.467 18.4004 125.887 17.7607 126.922 17.7607C127.928 17.7607 128.646 18.3418 128.646 19.5186V23H127.566V19.8359C127.566 19.0498 127.132 18.6836 126.517 18.6836C125.74 18.6836 125.301 19.2939 125.301 20.1338V23H124.222ZM132.283 23.0879C130.877 23.0879 130.003 22.2236 130.003 20.7686V20.0703C130.003 18.6055 130.96 17.751 132.22 17.751C133.514 17.751 134.427 18.6494 134.427 20.0703V20.6758H131.077V20.9297C131.077 21.6719 131.517 22.2188 132.278 22.2188C132.845 22.2188 133.235 21.9502 133.309 21.6279H134.368C134.305 22.2236 133.675 23.0879 132.283 23.0879ZM131.077 19.9678H133.367V19.8994C133.367 19.123 132.913 18.6055 132.225 18.6055C131.536 18.6055 131.077 19.123 131.077 19.8994V19.9678Z" fill="white"/>
<path d="M59.5737 42H57.2051L62.0244 28.0034H64.6289L69.438 42H66.9771L65.7363 38.124H60.8247L59.5737 42ZM63.3369 30.4233H63.2446L61.3477 36.3398H65.2134L63.3369 30.4233ZM76.0534 42.1538C74.6487 42.1538 73.5822 41.4873 73.008 40.4927H72.926V45.5991H70.6496V31.1616H72.8645V32.751H72.9465C73.5412 31.7153 74.6487 31.0181 76.1047 31.0181C78.5349 31.0181 80.2678 32.8535 80.2678 36.0938V37.0576C80.2678 40.2773 78.5554 42.1538 76.0534 42.1538ZM75.5305 40.2773C76.9763 40.2773 77.9607 39.1187 77.9607 36.9346V36.1758C77.9607 34.0737 77.0378 32.874 75.4895 32.874C73.9001 32.874 72.9055 34.166 72.9055 36.1655V36.9346C72.9055 38.9854 73.9104 40.2773 75.5305 40.2773ZM87.7036 42.1538C86.2988 42.1538 85.2324 41.4873 84.6581 40.4927H84.5761V45.5991H82.2997V31.1616H84.5146V32.751H84.5966C85.1913 31.7153 86.2988 31.0181 87.7548 31.0181C90.185 31.0181 91.9179 32.8535 91.9179 36.0938V37.0576C91.9179 40.2773 90.2055 42.1538 87.7036 42.1538ZM87.1806 40.2773C88.6264 40.2773 89.6108 39.1187 89.6108 36.9346V36.1758C89.6108 34.0737 88.6879 32.874 87.1396 32.874C85.5502 32.874 84.5556 34.166 84.5556 36.1655V36.9346C84.5556 38.9854 85.5605 40.2773 87.1806 40.2773ZM96.7919 38.1138H99.0682C99.1708 39.3237 100.237 40.3594 102.216 40.3594C104.031 40.3594 105.108 39.5083 105.108 38.1855C105.108 37.1191 104.39 36.5449 102.893 36.186L100.596 35.6118C98.7914 35.1914 97.1713 34.1147 97.1713 31.8384C97.1713 29.1621 99.5092 27.6958 102.226 27.6958C104.944 27.6958 107.21 29.1621 107.261 31.7769H105.026C104.923 30.5874 104.011 29.603 102.196 29.603C100.596 29.603 99.5092 30.3618 99.5092 31.6641C99.5092 32.5767 100.145 33.2329 101.447 33.5303L103.734 34.0942C105.836 34.6069 107.435 35.6016 107.435 37.9805C107.435 40.7285 105.21 42.2769 102.042 42.2769C98.1454 42.2769 96.8431 40.0005 96.7919 38.1138ZM110.288 31.1616V28.5264H112.523V31.1616H114.635V32.9868H112.523V38.77C112.523 39.9492 112.964 40.2773 114.184 40.2773C114.379 40.2773 114.564 40.2773 114.697 40.2568V42C114.512 42.0308 114.082 42.0718 113.62 42.0718C110.985 42.0718 110.257 41.1284 110.257 38.9546V32.9868H108.76V31.1616H110.288ZM120.861 30.9771C123.978 30.9771 125.67 33.1714 125.67 36.1245V36.9961C125.67 40.0518 123.989 42.1846 120.861 42.1846C117.734 42.1846 116.032 40.0518 116.032 36.9961V36.1245C116.032 33.1816 117.744 30.9771 120.861 30.9771ZM120.861 32.8022C119.169 32.8022 118.328 34.1865 118.328 36.1553V36.9858C118.328 38.9238 119.159 40.3491 120.861 40.3491C122.563 40.3491 123.384 38.9341 123.384 36.9858V36.1553C123.384 34.1763 122.553 32.8022 120.861 32.8022ZM127.671 42V31.1616H129.948V32.5869H130.03C130.307 31.9102 131.117 31.0078 132.624 31.0078C132.921 31.0078 133.178 31.0283 133.393 31.0693V33.0791C133.198 33.0278 132.798 32.9971 132.419 32.9971C130.594 32.9971 129.979 34.125 129.979 35.5811V42H127.671ZM138.993 42.1846C136.092 42.1846 134.246 40.2671 134.246 37.0576V35.9604C134.246 32.9355 136.051 30.9771 138.901 30.9771C141.793 30.9771 143.536 33.0073 143.536 36.063V37.0986H136.491V37.355C136.491 39.1802 137.476 40.3901 139.024 40.3901C140.183 40.3901 140.972 39.8159 141.249 38.8828H143.413C143.085 40.6362 141.67 42.1846 138.993 42.1846ZM136.491 35.5093H141.311V35.4888C141.311 33.9507 140.357 32.7407 138.911 32.7407C137.445 32.7407 136.491 33.9507 136.491 35.4888V35.5093Z" fill="white"/>
</svg>
