<svg width="12" height="14" viewBox="0 0 12 14" fill="none" xmlns="http://www.w3.org/2000/svg">
<path d="M9.68748 7.41328C9.69415 6.915 9.83181 6.42644 10.0876 5.99305C10.3434 5.55967 10.7091 5.19554 11.1506 4.93456C10.8702 4.5494 10.5001 4.23244 10.07 4.00884C9.63981 3.78523 9.16134 3.66115 8.67257 3.64645C7.62995 3.54122 6.61918 4.24632 6.08787 4.24632C5.54628 4.24632 4.72827 3.6569 3.84739 3.67432C3.27761 3.69202 2.72233 3.85133 2.23563 4.13672C1.74892 4.42212 1.34741 4.82387 1.0702 5.30283C-0.130565 7.30179 0.765103 10.2396 1.91536 11.8554C2.49086 12.6466 3.16345 13.5304 4.04354 13.4991C4.90475 13.4648 5.22639 12.9711 6.26594 12.9711C7.29585 12.9711 7.59761 13.4991 8.49555 13.4792C9.41968 13.4648 10.0019 12.6844 10.5572 11.8857C10.9707 11.322 11.2889 10.6989 11.5 10.0395C10.9631 9.82121 10.5049 9.45574 10.1826 8.98872C9.86031 8.5217 9.6881 7.97378 9.68748 7.41328Z" fill="white"/>
<path d="M7.99133 2.58386C8.4952 2.00227 8.74344 1.25473 8.68333 0.5C7.91353 0.57774 7.20245 0.931489 6.69178 1.49077C6.44209 1.76399 6.25086 2.08184 6.12902 2.42617C6.00717 2.77049 5.9571 3.13453 5.98166 3.49748C6.3667 3.50129 6.74761 3.42104 7.09572 3.26279C7.44383 3.10454 7.75005 2.8724 7.99133 2.58386Z" fill="white"/>
</svg>
