<svg width="180" height="60" viewBox="0 0 180 60" fill="none" xmlns="http://www.w3.org/2000/svg">
<rect x="0.5" y="0.5" width="179" height="59" rx="5.5" fill="black"/>
<rect x="0.5" y="0.5" width="179" height="59" rx="5.5" stroke="#A6A6A6"/>
<path d="M25.4738 29.1925L11.1323 45.0089C11.1337 45.0117 11.1337 45.0159 11.135 45.0187C11.5755 46.7361 13.0841 48 14.8756 48C15.5922 48 16.2644 47.7984 16.8409 47.4457L16.8867 47.4177L33.0292 37.739L25.4738 29.1925Z" fill="#EA4335"/>
<path d="M39.982 26.4993L39.9685 26.4895L32.9991 22.2918L25.1475 29.552L33.0274 37.7373L39.9591 33.5817C41.1741 32.8986 41.9998 31.5675 41.9998 30.0335C41.9998 28.5078 41.1862 27.1837 39.982 26.4993Z" fill="#FBBC04"/>
<path d="M11.132 14.99C11.0458 15.3203 11 15.6674 11 16.0258V43.9745C11 44.3329 11.0458 44.68 11.1334 45.0089L25.9665 29.597L11.132 14.99Z" fill="#4285F4"/>
<path d="M25.5798 29.9999L33.0017 22.289L16.8781 12.5753C16.2922 12.21 15.6079 12 14.8765 12C13.085 12 11.5737 13.2667 11.1332 14.9855C11.1332 14.9869 11.1318 14.9883 11.1318 14.9897L25.5798 29.9999Z" fill="#34A853"/>
<path d="M60.61 18.71C60.61 19.71 60.3133 20.5067 59.72 21.1C59.0533 21.8067 58.1767 22.16 57.09 22.16C56.05 22.16 55.17 21.8 54.45 21.08C53.73 20.36 53.37 19.4733 53.37 18.42C53.37 17.3667 53.73 16.48 54.45 15.76C55.17 15.04 56.05 14.68 57.09 14.68C57.6167 14.68 58.1133 14.7733 58.58 14.96C59.0467 15.1467 59.43 15.41 59.73 15.75L59.07 16.41C58.85 16.1433 58.5633 15.9367 58.21 15.79C57.8633 15.6367 57.49 15.56 57.09 15.56C56.31 15.56 55.65 15.83 55.11 16.37C54.5767 16.9167 54.31 17.6 54.31 18.42C54.31 19.24 54.5767 19.9233 55.11 20.47C55.65 21.01 56.31 21.28 57.09 21.28C57.8033 21.28 58.3967 21.08 58.87 20.68C59.3433 20.28 59.6167 19.73 59.69 19.03H57.09V18.17H60.56C60.5933 18.3567 60.61 18.5367 60.61 18.71ZM65.9078 14.84V15.72H62.6478V17.99H65.5878V18.85H62.6478V21.12H65.9078V22H61.7278V14.84H65.9078ZM69.5877 15.72V22H68.6677V15.72H66.6677V14.84H71.5877V15.72H69.5877ZM75.6654 22H74.7454V14.84H75.6654V22ZM79.5487 15.72V22H78.6287V15.72H76.6287V14.84H81.5487V15.72H79.5487ZM91.521 18.42C91.521 19.48 91.1677 20.3667 90.461 21.08C89.7477 21.8 88.8743 22.16 87.841 22.16C86.801 22.16 85.9277 21.8 85.221 21.08C84.5143 20.3667 84.161 19.48 84.161 18.42C84.161 17.36 84.5143 16.4733 85.221 15.76C85.9277 15.04 86.801 14.68 87.841 14.68C88.881 14.68 89.7543 15.0433 90.461 15.77C91.1677 16.4833 91.521 17.3667 91.521 18.42ZM85.101 18.42C85.101 19.2467 85.361 19.93 85.881 20.47C86.4077 21.01 87.061 21.28 87.841 21.28C88.621 21.28 89.271 21.01 89.791 20.47C90.3177 19.9367 90.581 19.2533 90.581 18.42C90.581 17.5867 90.3177 16.9033 89.791 16.37C89.271 15.83 88.621 15.56 87.841 15.56C87.061 15.56 86.4077 15.83 85.881 16.37C85.361 16.91 85.101 17.5933 85.101 18.42ZM93.5267 22H92.6067V14.84H93.7267L97.2067 20.41H97.2467L97.2067 19.03V14.84H98.1267V22H97.1667L93.5267 16.16H93.4867L93.5267 17.54V22Z" fill="white"/>
<path d="M133.836 42.2129H136.125V27.5309H133.836V42.2129ZM154.454 32.8195L151.83 39.1851H151.752L149.029 32.8195H146.563L150.647 41.7161L148.319 46.6653H150.705L157 32.8195H154.454ZM141.473 40.5451C140.722 40.5451 139.677 40.1869 139.677 39.2978C139.677 38.1657 140.979 37.7311 142.103 37.7311C143.109 37.7311 143.584 37.939 144.195 38.222C144.017 39.5821 142.794 40.5451 141.473 40.5451ZM141.749 32.4989C140.092 32.4989 138.374 33.1977 137.665 34.7468L139.697 35.5583C140.131 34.7468 140.939 34.4814 141.788 34.4814C142.972 34.4814 144.175 35.1614 144.195 36.3711V36.5214C143.78 36.2947 142.893 35.9553 141.808 35.9553C139.618 35.9553 137.388 37.1075 137.388 39.2603C137.388 41.2251 139.184 42.4912 141.196 42.4912C142.735 42.4912 143.584 41.83 144.117 41.0548H144.195V42.1882H146.404V36.559C146.404 33.9528 144.373 32.4989 141.749 32.4989ZM127.602 34.607H124.346V29.5744H127.602C129.313 29.5744 130.285 30.9309 130.285 32.0901C130.285 33.2282 129.313 34.607 127.602 34.607ZM127.543 27.5309H122.058V42.2129H124.346V36.6506H127.543C130.08 36.6506 132.574 34.8912 132.574 32.0901C132.574 29.289 130.08 27.5309 127.543 27.5309ZM97.6333 40.5475C96.052 40.5475 94.7283 39.2802 94.7283 37.5397C94.7283 35.7803 96.052 34.4931 97.6333 34.4931C99.195 34.4931 100.419 35.7803 100.419 37.5397C100.419 39.2802 99.195 40.5475 97.6333 40.5475ZM100.262 33.6416H100.183C99.6685 33.0556 98.681 32.5259 97.4358 32.5259C94.8265 32.5259 92.4355 34.7198 92.4355 37.5397C92.4355 40.3396 94.8265 42.5159 97.4358 42.5159C98.681 42.5159 99.6685 41.9862 100.183 41.3802H100.262V42.1001C100.262 44.011 99.195 45.0328 97.475 45.0328C96.0716 45.0328 95.2019 44.0674 94.8461 43.2534L92.8502 44.0486C93.423 45.3734 94.9455 47 97.475 47C100.163 47 102.436 45.4861 102.436 41.7971V32.8277H100.262V33.6416ZM104.017 42.2129H106.31V27.5297H104.017V42.2129ZM109.689 37.3694C109.63 35.4397 111.25 34.4555 112.416 34.4555C113.326 34.4555 114.096 34.8901 114.353 35.5149L109.689 37.3694ZM116.804 35.704C116.37 34.5882 115.045 32.5259 112.337 32.5259C109.649 32.5259 107.417 34.5495 107.417 37.5209C107.417 40.3208 109.63 42.5159 112.594 42.5159C114.986 42.5159 116.37 41.1159 116.943 40.302L115.164 39.1663C114.571 39.999 113.76 40.5475 112.594 40.5475C111.428 40.5475 110.598 40.0366 110.064 39.0348L117.041 36.2712L116.804 35.704ZM61.2218 34.0585V36.1773H66.5177C66.3594 37.3694 65.9448 38.2396 65.313 38.8445C64.5414 39.5832 63.3355 40.3971 61.2218 40.3971C57.9598 40.3971 55.4106 37.8803 55.4106 34.7585C55.4106 31.6356 57.9598 29.1199 61.2218 29.1199C62.9809 29.1199 64.2654 29.7823 65.2136 30.6338L66.7753 29.1387C65.4504 27.9278 63.6925 27 61.2218 27C56.7551 27 53 30.4823 53 34.7585C53 39.0348 56.7551 42.5159 61.2218 42.5159C63.6323 42.5159 65.4504 41.7584 66.8735 40.3396C68.337 38.9396 68.7909 36.9724 68.7909 35.3822C68.7909 34.8901 68.7516 34.4367 68.6719 34.0585H61.2218ZM74.8131 40.5475C73.2318 40.5475 71.8676 39.299 71.8676 37.5209C71.8676 35.7228 73.2318 34.4931 74.8131 34.4931C76.3931 34.4931 77.7573 35.7228 77.7573 37.5209C77.7573 39.299 76.3931 40.5475 74.8131 40.5475ZM74.8131 32.5259C71.9265 32.5259 69.5748 34.6258 69.5748 37.5209C69.5748 40.3971 71.9265 42.5159 74.8131 42.5159C77.6984 42.5159 80.0501 40.3971 80.0501 37.5209C80.0501 34.6258 77.6984 32.5259 74.8131 32.5259ZM86.2379 40.5475C84.6566 40.5475 83.2924 39.299 83.2924 37.5209C83.2924 35.7228 84.6566 34.4931 86.2379 34.4931C87.8192 34.4931 89.1821 35.7228 89.1821 37.5209C89.1821 39.299 87.8192 40.5475 86.2379 40.5475ZM86.2379 32.5259C83.3526 32.5259 81.0008 34.6258 81.0008 37.5209C81.0008 40.3971 83.3526 42.5159 86.2379 42.5159C89.1232 42.5159 91.4749 40.3971 91.4749 37.5209C91.4749 34.6258 89.1232 32.5259 86.2379 32.5259Z" fill="white"/>
</svg>
