<svg width="13" height="14" viewBox="0 0 13 14" fill="none" xmlns="http://www.w3.org/2000/svg">
<path d="M6.10282 6.68598L0.55127 12.8368C0.551791 12.8379 0.551791 12.8395 0.552312 12.8406C0.722816 13.5085 1.30681 14 2.00029 14C2.27769 14 2.53788 13.9216 2.76105 13.7844L2.77877 13.7736L9.02746 10.0096L6.10282 6.68598Z" fill="#EA4335"/>
<path d="M11.719 5.63869L11.7137 5.63488L9.01592 4.00247L5.97656 6.82585L9.02687 10.009L11.7101 8.39295C12.1804 8.12732 12.5 7.60967 12.5 7.0131C12.5 6.41979 12.1851 5.90486 11.719 5.63869Z" fill="#FBBC04"/>
<path d="M0.551099 1.16265C0.517728 1.29111 0.5 1.4261 0.5 1.56544V12.4344C0.5 12.5738 0.517728 12.7088 0.551621 12.8367L6.29349 6.84317L0.551099 1.16265Z" fill="#4285F4"/>
<path d="M6.14353 7L9.01655 4.00134L2.77516 0.223766C2.54834 0.0816989 2.28346 5.14984e-05 2.00033 5.14984e-05C1.30684 5.14984e-05 0.721807 0.49266 0.551302 1.16108C0.551302 1.16163 0.550781 1.16217 0.550781 1.16272L6.14353 7Z" fill="#34A853"/>
</svg>
